# xmcd
#
# Track frame offsets: 
#        150
#        31252
#        64552
#        90727
#        111564
#        129949
#        154459
#
# Disc length: 2488 seconds
#
# Revision: 0
# Processed by: cddbd v1.5.2PL0 Copyright (c) Steve Scherf et al.
# Submitted via: ExactAudioCopy v1.3
#
DISCID=5809b607
DTITLE=Billy Branch, Lurrie Bell and The Sons Of Blues - Chicago's Young
DTITLE=Blues Generation
DYEAR=1982
DGENRE=Chicago Blues, Harmonica Blues
TTITLE0=Help Me
TTITLE1=Breakin' Up Somebody's Home
TTITLE2=Sweet Little Angel
TTITLE3=Don't Start Me Talkin'
TTITLE4=Just A Little Bit
TTITLE5=I Need You So Bad
TTITLE6=Mystery Train
EXTD=
EXTT0=
EXTT1=
EXTT2=
EXTT3=
EXTT4=
EXTT5=
EXTT6=
PLAYORDER=
